<svg xmlns="http://www.w3.org/2000/svg" viewBox="0 0 1000 450" width="100%" height="auto" style="background-color: #F8FAFC; border-radius: 8px; font-family: 'Segoe UI', Roboto, Helvetica, sans-serif; box-shadow: 0 4px 12px rgba(0,0,0,0.1);">
  <defs>
    <filter id="shadow" x="-10%" y="-10%" width="120%" height="120%">
      <feDropShadow dx="0" dy="4" stdDeviation="6" flood-color="#0F172A" flood-opacity="0.08" />
    </filter>
    <marker id="arrow" viewBox="0 0 10 10" refX="9" refY="5" markerWidth="6" markerHeight="6" orient="auto-start-reverse">
      <path d="M 0 0 L 10 5 L 0 10 z" fill="#64748B" />
    </marker>
    <marker id="arrow-green" viewBox="0 0 10 10" refX="9" refY="5" markerWidth="6" markerHeight="6" orient="auto-start-reverse">
      <path d="M 0 0 L 10 5 L 0 10 z" fill="#10B981" />
    </marker>
    <marker id="arrow-red" viewBox="0 0 10 10" refX="9" refY="5" markerWidth="6" markerHeight="6" orient="auto-start-reverse">
      <path d="M 0 0 L 10 5 L 0 10 z" fill="#EF4444" />
    </marker>
  </defs>
  <text x="500" y="50" font-size="28" font-weight="700" fill="#0F172A" text-anchor="middle">Continuous Integration vs Delivery vs Deployment</text>

  <!-- CI -->
  <text x="50" y="130" font-size="18" font-weight="bold" fill="#3B82F6">Continuous Integration</text>
  <rect x="260" y="100" width="120" height="50" rx="8" fill="#EFF6FF" stroke="#3B82F6" stroke-width="2"/>
  <text x="320" y="130" font-size="14" font-weight="bold" fill="#1E293B" text-anchor="middle">Build</text>
  <path d="M 380 125 L 430 125" fill="none" stroke="#64748B" stroke-width="2" marker-end="url(#arrow)"/>
  
  <rect x="430" y="100" width="120" height="50" rx="8" fill="#EFF6FF" stroke="#3B82F6" stroke-width="2"/>
  <text x="490" y="130" font-size="14" font-weight="bold" fill="#1E293B" text-anchor="middle">Test (Auto)</text>
  
  <line x1="50" y1="180" x2="950" y2="180" stroke="#CBD5E1" stroke-width="2" stroke-dasharray="5,5" />

  <!-- Continuous Delivery -->
  <text x="50" y="240" font-size="18" font-weight="bold" fill="#10B981">Continuous Delivery</text>
  
  <rect x="260" y="210" width="120" height="50" rx="8" fill="#EFF6FF" stroke="#3B82F6" stroke-width="2"/>
  <text x="320" y="240" font-size="14" font-weight="bold" fill="#1E293B" text-anchor="middle">Build</text>
  <path d="M 380 235 L 430 235" fill="none" stroke="#64748B" stroke-width="2" marker-end="url(#arrow)"/>
  
  <rect x="430" y="210" width="120" height="50" rx="8" fill="#EFF6FF" stroke="#3B82F6" stroke-width="2"/>
  <text x="490" y="240" font-size="14" font-weight="bold" fill="#1E293B" text-anchor="middle">Test (Auto)</text>
  <path d="M 550 235 L 600 235" fill="none" stroke="#64748B" stroke-width="2" marker-end="url(#arrow)"/>
  
  <rect x="600" y="210" width="140" height="50" rx="8" fill="#FEF3C7" stroke="#F59E0B" stroke-width="2"/>
  <text x="670" y="240" font-size="14" font-weight="bold" fill="#1E293B" text-anchor="middle">Manual Approval</text>
  <path d="M 740 235 L 790 235" fill="none" stroke="#64748B" stroke-width="2" marker-end="url(#arrow)"/>

  <rect x="790" y="210" width="140" height="50" rx="8" fill="#ECFDF5" stroke="#10B981" stroke-width="2"/>
  <text x="860" y="240" font-size="14" font-weight="bold" fill="#1E293B" text-anchor="middle">Deploy to Prod</text>

  <line x1="50" y1="290" x2="950" y2="290" stroke="#CBD5E1" stroke-width="2" stroke-dasharray="5,5" />

  <!-- Continuous Deployment -->
  <text x="50" y="350" font-size="18" font-weight="bold" fill="#8B5CF6">Continuous Deployment</text>
  
  <rect x="260" y="320" width="120" height="50" rx="8" fill="#EFF6FF" stroke="#3B82F6" stroke-width="2"/>
  <text x="320" y="350" font-size="14" font-weight="bold" fill="#1E293B" text-anchor="middle">Build</text>
  <path d="M 380 345 L 430 345" fill="none" stroke="#64748B" stroke-width="2" marker-end="url(#arrow)"/>
  
  <rect x="430" y="320" width="120" height="50" rx="8" fill="#EFF6FF" stroke="#3B82F6" stroke-width="2"/>
  <text x="490" y="350" font-size="14" font-weight="bold" fill="#1E293B" text-anchor="middle">Test (Auto)</text>
  <path d="M 550 345 L 790 345" fill="none" stroke="#64748B" stroke-width="2" marker-end="url(#arrow)"/>
  <text x="670" y="335" font-size="12" font-weight="bold" fill="#64748B" text-anchor="middle">Fully Automated</text>
  
  <rect x="790" y="320" width="140" height="50" rx="8" fill="#F3E8FF" stroke="#8B5CF6" stroke-width="2"/>
  <text x="860" y="350" font-size="14" font-weight="bold" fill="#1E293B" text-anchor="middle">Deploy to Prod</text>
</svg>