<svg xmlns="http://www.w3.org/2000/svg" viewBox="0 0 1000 300" width="100%" height="auto" style="background-color: #F8FAFC; border-radius: 8px; font-family: 'Segoe UI', Roboto, Helvetica, sans-serif; box-shadow: 0 4px 12px rgba(0,0,0,0.1);">
  <defs>
    <filter id="shadow" x="-10%" y="-10%" width="120%" height="120%">
      <feDropShadow dx="0" dy="4" stdDeviation="6" flood-color="#0F172A" flood-opacity="0.08" />
    </filter>
    <marker id="arrow" viewBox="0 0 10 10" refX="9" refY="5" markerWidth="6" markerHeight="6" orient="auto-start-reverse">
      <path d="M 0 0 L 10 5 L 0 10 z" fill="#64748B" />
    </marker>
    <marker id="arrow-green" viewBox="0 0 10 10" refX="9" refY="5" markerWidth="6" markerHeight="6" orient="auto-start-reverse">
      <path d="M 0 0 L 10 5 L 0 10 z" fill="#10B981" />
    </marker>
    <marker id="arrow-red" viewBox="0 0 10 10" refX="9" refY="5" markerWidth="6" markerHeight="6" orient="auto-start-reverse">
      <path d="M 0 0 L 10 5 L 0 10 z" fill="#EF4444" />
    </marker>
  </defs>
  <text x="500" y="50" font-size="28" font-weight="700" fill="#0F172A" text-anchor="middle">DevOps Lifecycle Phases</text>
  
  <g transform="translate(40, 100)">
    <rect width="110" height="80" rx="12" fill="#FFFFFF" stroke="#3B82F6" stroke-width="2" filter="url(#shadow)"/>
    <text x="55" y="45" font-size="16" font-weight="bold" fill="#1E293B" text-anchor="middle">Author</text>
  </g>
  <path d="M 150 140 L 180 140" fill="none" stroke="#64748B" stroke-width="3" marker-end="url(#arrow)"/>
  
  <g transform="translate(180, 100)">
    <rect width="110" height="80" rx="12" fill="#FFFFFF" stroke="#8B5CF6" stroke-width="2" filter="url(#shadow)"/>
    <text x="55" y="45" font-size="16" font-weight="bold" fill="#1E293B" text-anchor="middle">Source</text>
  </g>
  <path d="M 290 140 L 320 140" fill="none" stroke="#64748B" stroke-width="3" marker-end="url(#arrow)"/>

  <g transform="translate(320, 100)">
    <rect width="110" height="80" rx="12" fill="#FFFFFF" stroke="#F59E0B" stroke-width="2" filter="url(#shadow)"/>
    <text x="55" y="45" font-size="16" font-weight="bold" fill="#1E293B" text-anchor="middle">Build</text>
  </g>
  <path d="M 430 140 L 460 140" fill="none" stroke="#64748B" stroke-width="3" marker-end="url(#arrow)"/>

  <g transform="translate(460, 100)">
    <rect width="110" height="80" rx="12" fill="#FFFFFF" stroke="#EF4444" stroke-width="2" filter="url(#shadow)"/>
    <text x="55" y="45" font-size="16" font-weight="bold" fill="#1E293B" text-anchor="middle">Test</text>
  </g>
  <path d="M 570 140 L 600 140" fill="none" stroke="#64748B" stroke-width="3" marker-end="url(#arrow)"/>

  <g transform="translate(600, 100)">
    <rect width="110" height="80" rx="12" fill="#FFFFFF" stroke="#10B981" stroke-width="2" filter="url(#shadow)"/>
    <text x="55" y="45" font-size="16" font-weight="bold" fill="#1E293B" text-anchor="middle">Deploy</text>
  </g>
  <path d="M 710 140 L 740 140" fill="none" stroke="#64748B" stroke-width="3" marker-end="url(#arrow)"/>

  <g transform="translate(740, 100)">
    <rect width="110" height="80" rx="12" fill="#FFFFFF" stroke="#14B8A6" stroke-width="2" filter="url(#shadow)"/>
    <text x="55" y="45" font-size="16" font-weight="bold" fill="#1E293B" text-anchor="middle">Monitor</text>
  </g>
  
  <path d="M 795 180 L 795 240 L 95 240 L 95 180" fill="none" stroke="#64748B" stroke-width="2" stroke-dasharray="8,6" marker-end="url(#arrow)"/>
  <text x="445" y="230" font-size="16" font-weight="bold" fill="#64748B" text-anchor="middle">Continuous Feedback Loop to New Authoring</text>
</svg>