<svg xmlns="http://www.w3.org/2000/svg" viewBox="0 0 64 64">
  <rect width="64" height="64" rx="12" fill="#0f172a"/>
  <path d="M48 38c0-5.5-4.5-10-10-10-.4 0-.8 0-1.2.1C35.5 24 31.1 21 26 21c-7.2 0-13 5.8-13 13 0 .3 0 .7.1 1C10.2 36 8 38.8 8 42c0 3.9 3.1 7 7 7h26c5.5 0 10-4.5 10-10 0-.1 0-.1-.1-.2C51.7 37.7 52 36.9 52 36c0-2.2-1.8-4-4-4z" fill="#60a5fa"/>
  <path d="M22 38c0-5 4-9 9-9 3.5 0 6.5 2 8 5 1.5-1.3 3.4-2 5.5-2 4.7 0 8.5 3.8 8.5 8.5S49.2 49 44.5 49H24c-4.4 0-8-3.6-8-8 0-3.9 2.8-7.1 6.5-7.8" fill="#93c5fd" opacity="0.6"/>
</svg>
